<mxfile host="app.diagrams.net" agent="Mozilla/5.0 (Windows NT 10.0; Win64; x64) AppleWebKit/537.36 (KHTML, like Gecko) Chrome/133.0.0.0 Safari/537.36" version="26.0.16">
  <diagram name="Page-1" id="bl95XdQGdq1YLiJfkjqN">
    <mxGraphModel dx="1000" dy="530" grid="1" gridSize="10" guides="1" tooltips="1" connect="1" arrows="1" fold="1" page="1" pageScale="1" pageWidth="850" pageHeight="1100" math="0" shadow="0">
      <root>
        <mxCell id="0" />
        <mxCell id="1" parent="0" />
        <mxCell id="du4fdwfoUmVfIacFh9Lh-4" value="" style="edgeStyle=orthogonalEdgeStyle;rounded=0;orthogonalLoop=1;jettySize=auto;html=1;" edge="1" parent="1" source="du4fdwfoUmVfIacFh9Lh-1" target="du4fdwfoUmVfIacFh9Lh-2">
          <mxGeometry relative="1" as="geometry" />
        </mxCell>
        <mxCell id="du4fdwfoUmVfIacFh9Lh-1" value="&lt;font style=&quot;font-size: 14px;&quot;&gt;&lt;b&gt;&lt;font style=&quot;&quot;&gt;360&lt;/font&gt;Â°Feedback System&amp;nbsp;&lt;/b&gt;&lt;/font&gt;" style="rounded=1;whiteSpace=wrap;html=1;" vertex="1" parent="1">
          <mxGeometry x="365" y="80" width="120" height="60" as="geometry" />
        </mxCell>
        <mxCell id="du4fdwfoUmVfIacFh9Lh-10" style="edgeStyle=orthogonalEdgeStyle;rounded=0;orthogonalLoop=1;jettySize=auto;html=1;exitX=0.5;exitY=1;exitDx=0;exitDy=0;entryX=0.5;entryY=0;entryDx=0;entryDy=0;" edge="1" parent="1" source="du4fdwfoUmVfIacFh9Lh-2" target="du4fdwfoUmVfIacFh9Lh-7">
          <mxGeometry relative="1" as="geometry" />
        </mxCell>
        <mxCell id="du4fdwfoUmVfIacFh9Lh-2" value="Main/Home Page" style="rounded=1;whiteSpace=wrap;html=1;" vertex="1" parent="1">
          <mxGeometry x="378" y="170" width="95" height="40" as="geometry" />
        </mxCell>
        <mxCell id="du4fdwfoUmVfIacFh9Lh-11" style="edgeStyle=orthogonalEdgeStyle;rounded=0;orthogonalLoop=1;jettySize=auto;html=1;exitX=0.5;exitY=1;exitDx=0;exitDy=0;entryX=0.5;entryY=0;entryDx=0;entryDy=0;" edge="1" parent="1" source="du4fdwfoUmVfIacFh9Lh-5" target="du4fdwfoUmVfIacFh9Lh-6">
          <mxGeometry relative="1" as="geometry" />
        </mxCell>
        <mxCell id="du4fdwfoUmVfIacFh9Lh-5" value="Login" style="rounded=1;whiteSpace=wrap;html=1;" vertex="1" parent="1">
          <mxGeometry x="230" y="250" width="95" height="40" as="geometry" />
        </mxCell>
        <mxCell id="du4fdwfoUmVfIacFh9Lh-22" style="edgeStyle=orthogonalEdgeStyle;rounded=0;orthogonalLoop=1;jettySize=auto;html=1;exitX=0.5;exitY=1;exitDx=0;exitDy=0;entryX=0.5;entryY=0;entryDx=0;entryDy=0;" edge="1" parent="1" source="du4fdwfoUmVfIacFh9Lh-6">
          <mxGeometry relative="1" as="geometry">
            <mxPoint x="170" y="440" as="targetPoint" />
          </mxGeometry>
        </mxCell>
        <mxCell id="du4fdwfoUmVfIacFh9Lh-35" style="edgeStyle=orthogonalEdgeStyle;rounded=0;orthogonalLoop=1;jettySize=auto;html=1;exitX=0.5;exitY=1;exitDx=0;exitDy=0;entryX=0.5;entryY=0;entryDx=0;entryDy=0;" edge="1" parent="1" source="du4fdwfoUmVfIacFh9Lh-6" target="du4fdwfoUmVfIacFh9Lh-34">
          <mxGeometry relative="1" as="geometry" />
        </mxCell>
        <mxCell id="du4fdwfoUmVfIacFh9Lh-38" style="edgeStyle=orthogonalEdgeStyle;rounded=0;orthogonalLoop=1;jettySize=auto;html=1;exitX=0.5;exitY=1;exitDx=0;exitDy=0;entryX=0.5;entryY=0;entryDx=0;entryDy=0;" edge="1" parent="1" source="du4fdwfoUmVfIacFh9Lh-6" target="du4fdwfoUmVfIacFh9Lh-36">
          <mxGeometry relative="1" as="geometry" />
        </mxCell>
        <mxCell id="du4fdwfoUmVfIacFh9Lh-6" value="Redirect To HODs&lt;div&gt;Dashboard&lt;/div&gt;" style="rounded=1;whiteSpace=wrap;html=1;" vertex="1" parent="1">
          <mxGeometry x="363" y="330" width="125" height="60" as="geometry" />
        </mxCell>
        <mxCell id="du4fdwfoUmVfIacFh9Lh-13" style="edgeStyle=orthogonalEdgeStyle;rounded=0;orthogonalLoop=1;jettySize=auto;html=1;exitX=0;exitY=0.5;exitDx=0;exitDy=0;" edge="1" parent="1" source="du4fdwfoUmVfIacFh9Lh-7" target="du4fdwfoUmVfIacFh9Lh-5">
          <mxGeometry relative="1" as="geometry" />
        </mxCell>
        <mxCell id="du4fdwfoUmVfIacFh9Lh-7" value="Register" style="rounded=1;whiteSpace=wrap;html=1;" vertex="1" parent="1">
          <mxGeometry x="518" y="250" width="95" height="40" as="geometry" />
        </mxCell>
        <mxCell id="du4fdwfoUmVfIacFh9Lh-9" style="edgeStyle=orthogonalEdgeStyle;rounded=0;orthogonalLoop=1;jettySize=auto;html=1;exitX=0.5;exitY=1;exitDx=0;exitDy=0;entryX=0.577;entryY=-0.029;entryDx=0;entryDy=0;entryPerimeter=0;" edge="1" parent="1" source="du4fdwfoUmVfIacFh9Lh-2" target="du4fdwfoUmVfIacFh9Lh-5">
          <mxGeometry relative="1" as="geometry" />
        </mxCell>
        <mxCell id="du4fdwfoUmVfIacFh9Lh-12" style="edgeStyle=orthogonalEdgeStyle;rounded=0;orthogonalLoop=1;jettySize=auto;html=1;exitX=0.5;exitY=1;exitDx=0;exitDy=0;" edge="1" parent="1" source="du4fdwfoUmVfIacFh9Lh-7" target="du4fdwfoUmVfIacFh9Lh-7">
          <mxGeometry relative="1" as="geometry" />
        </mxCell>
        <mxCell id="du4fdwfoUmVfIacFh9Lh-15" value="&lt;b&gt;Structure Chart For HODs&lt;/b&gt;" style="text;html=1;align=center;verticalAlign=middle;resizable=0;points=[];autosize=1;strokeColor=none;fillColor=none;" vertex="1" parent="1">
          <mxGeometry x="45" y="38" width="170" height="30" as="geometry" />
        </mxCell>
        <mxCell id="du4fdwfoUmVfIacFh9Lh-33" value="See Faculties Details" style="rounded=1;whiteSpace=wrap;html=1;" vertex="1" parent="1">
          <mxGeometry x="110" y="440" width="120" height="50" as="geometry" />
        </mxCell>
        <mxCell id="du4fdwfoUmVfIacFh9Lh-34" value="Manage Profile" style="rounded=1;whiteSpace=wrap;html=1;" vertex="1" parent="1">
          <mxGeometry x="365" y="440" width="120" height="50" as="geometry" />
        </mxCell>
        <mxCell id="du4fdwfoUmVfIacFh9Lh-40" style="edgeStyle=orthogonalEdgeStyle;rounded=0;orthogonalLoop=1;jettySize=auto;html=1;exitX=0.5;exitY=1;exitDx=0;exitDy=0;" edge="1" parent="1" source="du4fdwfoUmVfIacFh9Lh-36" target="du4fdwfoUmVfIacFh9Lh-39">
          <mxGeometry relative="1" as="geometry" />
        </mxCell>
        <mxCell id="du4fdwfoUmVfIacFh9Lh-36" value="Give Feedback Evaluation" style="rounded=1;whiteSpace=wrap;html=1;" vertex="1" parent="1">
          <mxGeometry x="630" y="440" width="120" height="50" as="geometry" />
        </mxCell>
        <mxCell id="du4fdwfoUmVfIacFh9Lh-42" value="" style="edgeStyle=orthogonalEdgeStyle;rounded=0;orthogonalLoop=1;jettySize=auto;html=1;" edge="1" parent="1" source="du4fdwfoUmVfIacFh9Lh-39" target="du4fdwfoUmVfIacFh9Lh-41">
          <mxGeometry relative="1" as="geometry" />
        </mxCell>
        <mxCell id="du4fdwfoUmVfIacFh9Lh-39" value="Evaluate Each Faculty By Feedback Questionnaires" style="rounded=1;whiteSpace=wrap;html=1;" vertex="1" parent="1">
          <mxGeometry x="365.5" y="560" width="120" height="50" as="geometry" />
        </mxCell>
        <mxCell id="du4fdwfoUmVfIacFh9Lh-44" value="" style="edgeStyle=orthogonalEdgeStyle;rounded=0;orthogonalLoop=1;jettySize=auto;html=1;" edge="1" parent="1" source="du4fdwfoUmVfIacFh9Lh-41" target="du4fdwfoUmVfIacFh9Lh-43">
          <mxGeometry relative="1" as="geometry" />
        </mxCell>
        <mxCell id="du4fdwfoUmVfIacFh9Lh-41" value="Submit Feedback" style="rounded=1;whiteSpace=wrap;html=1;" vertex="1" parent="1">
          <mxGeometry x="365.5" y="660" width="120" height="50" as="geometry" />
        </mxCell>
        <mxCell id="du4fdwfoUmVfIacFh9Lh-43" value="Logout" style="rounded=1;whiteSpace=wrap;html=1;" vertex="1" parent="1">
          <mxGeometry x="365.5" y="760" width="120" height="50" as="geometry" />
        </mxCell>
      </root>
    </mxGraphModel>
  </diagram>
</mxfile>
